<svg width="24" height="24" viewBox="0 0 24 24" fill="none" xmlns="http://www.w3.org/2000/svg">
<g id="Frame" clip-path="url(#clip0_415_6964)">
<g id="Group">
<path id="Vector" d="M9.24994 8.00006H1.74994C0.784969 8.00006 0 7.21509 0 6.24994V1.74994C0 0.784969 0.784969 0 1.74994 0H9.24994C10.2151 0 11.0001 0.784969 11.0001 1.74994V6.24994C11.0001 7.21509 10.2151 8.00006 9.24994 8.00006ZM1.74994 1.5C1.68367 1.50005 1.62012 1.5264 1.57326 1.57326C1.5264 1.62012 1.50005 1.68367 1.5 1.74994V6.24994C1.50001 6.31624 1.52634 6.37982 1.57321 6.42672C1.62007 6.47362 1.68364 6.5 1.74994 6.50006H9.24994C9.31627 6.50004 9.37987 6.47368 9.42677 6.42677C9.47368 6.37987 9.50004 6.31627 9.50006 6.24994V1.74994C9.5 1.68364 9.47362 1.62007 9.42672 1.57321C9.37982 1.52634 9.31624 1.50001 9.24994 1.5H1.74994ZM9.24994 24H1.74994C0.784969 24 0 23.215 0 22.2501V11.7501C0 10.7849 0.784969 9.99994 1.74994 9.99994H9.24994C10.2151 9.99994 11.0001 10.7849 11.0001 11.7501V22.2501C11.0001 23.215 10.2151 24 9.24994 24ZM1.74994 11.4999C1.68364 11.5 1.62007 11.5264 1.57321 11.5733C1.52634 11.6202 1.50001 11.6838 1.5 11.7501V22.2501C1.50005 22.3163 1.5264 22.3799 1.57326 22.4267C1.62012 22.4736 1.68367 22.5 1.74994 22.5H9.24994C9.31624 22.5 9.37982 22.4737 9.42672 22.4268C9.47362 22.3799 9.5 22.3164 9.50006 22.2501V11.7501C9.50004 11.6837 9.47368 11.6201 9.42677 11.5732C9.37987 11.5263 9.31627 11.5 9.24994 11.4999H1.74994ZM22.2501 24H14.7501C13.7849 24 12.9999 23.215 12.9999 22.2501V17.7501C12.9999 16.7849 13.7849 15.9999 14.7501 15.9999H22.2501C23.215 15.9999 24 16.7849 24 17.7501V22.2501C24 23.215 23.215 24 22.2501 24ZM14.7501 17.4999C14.6837 17.5 14.6201 17.5263 14.5732 17.5732C14.5263 17.6201 14.5 17.6837 14.4999 17.7501V22.2501C14.5 22.3164 14.5264 22.3799 14.5733 22.4268C14.6202 22.4737 14.6838 22.5 14.7501 22.5H22.2501C22.3163 22.5 22.3799 22.4736 22.4267 22.4267C22.4736 22.3799 22.5 22.3163 22.5 22.2501V17.7501C22.5 17.6838 22.4737 17.6202 22.4268 17.5733C22.3799 17.5264 22.3164 17.5 22.2501 17.4999H14.7501ZM22.2501 14.0001H14.7501C13.7849 14.0001 12.9999 13.2151 12.9999 12.2499V1.74994C12.9999 0.784969 13.7849 0 14.7501 0H22.2501C23.215 0 24 0.784969 24 1.74994V12.2499C24 13.2151 23.215 14.0001 22.2501 14.0001ZM14.7501 1.5C14.6838 1.50001 14.6202 1.52634 14.5733 1.57321C14.5264 1.62007 14.5 1.68364 14.4999 1.74994V12.2499C14.5 12.3163 14.5263 12.3799 14.5732 12.4268C14.6201 12.4737 14.6837 12.5 14.7501 12.5001H22.2501C22.3164 12.5 22.3799 12.4736 22.4268 12.4267C22.4737 12.3798 22.5 12.3162 22.5 12.2499V1.74994C22.5 1.68367 22.4736 1.62012 22.4267 1.57326C22.3799 1.5264 22.3163 1.50005 22.2501 1.5H14.7501Z" fill="black"/>
</g>
</g>
<defs>
<clipPath id="clip0_415_6964">
<rect width="24" height="24" fill="white"/>
</clipPath>
</defs>
</svg>
