<svg width="21" height="22" viewBox="0 0 21 22" fill="none" xmlns="http://www.w3.org/2000/svg">
<g id="Group 1707477985">
<path id="Vector" d="M10.5 12.1709C9.57174 12.1709 8.6815 12.5396 8.02513 13.196C7.36875 13.8524 7 14.7426 7 15.6709C7 16.5992 7.36875 17.4894 8.02513 18.1458C8.6815 18.8022 9.57174 19.1709 10.5 19.1709C11.4283 19.1709 12.3185 18.8022 12.9749 18.1458C13.6313 17.4894 14 16.5992 14 15.6709C14 14.7426 13.6313 13.8524 12.9749 13.196C12.3185 12.5396 11.4283 12.1709 10.5 12.1709ZM9 15.6709C9 15.2731 9.15804 14.8915 9.43934 14.6102C9.72064 14.3289 10.1022 14.1709 10.5 14.1709C10.8978 14.1709 11.2794 14.3289 11.5607 14.6102C11.842 14.8915 12 15.2731 12 15.6709C12 16.0687 11.842 16.4503 11.5607 16.7316C11.2794 17.0129 10.8978 17.1709 10.5 17.1709C10.1022 17.1709 9.72064 17.0129 9.43934 16.7316C9.15804 16.4503 9 16.0687 9 15.6709Z" fill="#1E1E1E"/>
<path id="Vector_2" d="M16.026 4.78659L12.847 0.32959L1.158 9.66759L0.51 9.66059V9.67059H0V21.6706H21V9.67059H20.038L18.124 4.07159L16.026 4.78659ZM17.925 9.67059H7.897L15.366 7.12459L16.888 6.63759L17.925 9.67059ZM14.05 5.46059L6.34 8.08859L12.446 3.21059L14.05 5.46059ZM2 17.8396V13.4996C2.42218 13.3506 2.80565 13.109 3.12231 12.7925C3.43896 12.476 3.68077 12.0927 3.83 11.6706H17.17C17.3191 12.0929 17.5609 12.4764 17.8775 12.7931C18.1942 13.1097 18.5777 13.3515 19 13.5006V17.8406C18.5777 17.9897 18.1942 18.2314 17.8775 18.5481C17.5609 18.8648 17.3191 19.2483 17.17 19.6706H3.832C3.68218 19.2483 3.43996 18.8647 3.12302 18.548C2.80607 18.2312 2.4224 17.9892 2 17.8396Z" fill="#1E1E1E"/>
</g>
</svg>
