<svg width="24" height="24" viewBox="0 0 24 24" fill="none" xmlns="http://www.w3.org/2000/svg">
<g id="Frame" clip-path="url(#clip0_374_5155)">
<g id="Group">
<path id="Vector" d="M22.6883 21.1877H21.9008C21.1508 21.1877 20.5883 20.6252 20.5883 19.8752L20.5508 16.2002C20.5508 15.4502 21.1133 14.8877 21.8633 14.8877H22.6508C23.4008 14.8877 23.9633 15.4502 23.9633 16.2002L24.0008 19.8752C24.0008 20.6252 23.4383 21.1877 22.6883 21.1877ZM21.8633 15.6377C21.5633 15.6377 21.3008 15.9002 21.3008 16.2002L21.3383 19.8752C21.3383 20.2127 21.6008 20.4377 21.9008 20.4377H22.6883C22.9883 20.4377 23.2508 20.1752 23.2508 19.8752L23.2133 16.2002C23.2133 15.8627 22.9508 15.6377 22.6508 15.6377H21.8633Z" fill="black"/>
<path id="Vector_2" d="M21.6762 15.4127C21.4512 15.4127 21.3012 15.2627 21.3012 15.0377V14.4002H20.5137C20.2887 14.4002 20.1387 14.2502 20.1387 14.0252C20.1387 13.8002 20.2887 13.6502 20.5137 13.6502H21.6762C21.9012 13.6502 22.0512 13.8002 22.0512 14.0252V15.0377C22.0512 15.2627 21.9012 15.4127 21.6762 15.4127ZM20.5137 13.0877H20.4762C20.2887 13.0502 20.1387 12.8627 20.1387 12.6752L20.9637 6.3377C21.1887 4.8752 21.9762 3.6002 23.1762 2.8502C23.2887 2.7752 23.4387 2.7752 23.5512 2.8502C23.6637 2.9252 23.7387 3.0377 23.7387 3.1877L23.5512 12.7502C23.5512 12.9377 23.3637 13.1252 23.1762 13.1252C22.9512 13.1252 22.8012 12.9377 22.8012 12.7502L22.8387 11.3252L22.9887 3.9752C22.3137 4.6127 21.8637 5.4752 21.7137 6.4877L20.8887 12.7502C20.8512 12.9377 20.7012 13.0877 20.5137 13.0877Z" fill="black"/>
<path id="Vector_3" d="M23.1371 15.6375C22.9121 15.6375 22.7621 15.45 22.7621 15.2625L22.8371 12.7125C22.8371 12.525 23.0246 12.3375 23.2121 12.3375C23.4371 12.3375 23.5871 12.525 23.5871 12.7125L23.5121 15.2625C23.5121 15.4875 23.3246 15.6375 23.1371 15.6375ZM20.3246 14.4H20.2871C20.0996 14.3625 19.9496 14.175 19.9871 13.9875L20.1746 12.675C20.2121 12.4875 20.3996 12.3375 20.5871 12.375C20.7746 12.4125 20.9246 12.6 20.8871 12.7875L20.6996 14.1C20.6621 14.25 20.5121 14.4 20.3246 14.4ZM2.47461 20.625H1.72461C0.974609 20.625 0.412109 20.0625 0.412109 19.3125V15.75C0.412109 15 0.974609 14.4375 1.72461 14.4375H2.47461C3.22461 14.4375 3.78711 15 3.78711 15.75V19.3125C3.74961 20.0625 3.14961 20.625 2.47461 20.625ZM1.72461 15.1875C1.42461 15.1875 1.16211 15.45 1.16211 15.75V19.3125C1.16211 19.6125 1.42461 19.875 1.72461 19.875H2.47461C2.77461 19.875 2.99961 19.6125 3.03711 19.275V15.75C3.03711 15.45 2.77461 15.1875 2.47461 15.1875H1.72461ZM2.84961 13.725C2.62461 13.725 2.47461 13.575 2.47461 13.35V9.5625C2.47461 9.3375 2.62461 9.1875 2.84961 9.1875C3.07461 9.1875 3.22461 9.3375 3.22461 9.5625V13.35C3.22461 13.575 3.07461 13.725 2.84961 13.725Z" fill="black"/>
<path id="Vector_4" d="M2.81328 15.1879C2.58828 15.1879 2.43828 15.0004 2.43828 14.8129L2.47578 13.3504C2.47578 13.1254 2.66328 12.9754 2.85078 12.9754C3.07578 12.9754 3.22578 13.1629 3.22578 13.3504L3.18828 14.8129C3.18828 15.0379 3.00078 15.1879 2.81328 15.1879ZM1.42578 13.5379C1.20078 13.5379 1.05078 13.3879 1.05078 13.1629V9.52539C1.05078 9.30039 1.20078 9.15039 1.42578 9.15039C1.65078 9.15039 1.80078 9.30039 1.80078 9.52539V13.1629C1.80078 13.3879 1.65078 13.5379 1.42578 13.5379Z" fill="black"/>
<path id="Vector_5" d="M1.42539 15.1875C1.20039 15.1875 1.05039 15.0375 1.05039 14.8125V13.1625C1.05039 12.9375 1.20039 12.7875 1.42539 12.7875C1.65039 12.7875 1.80039 12.9375 1.80039 13.1625V14.8125C1.80039 15.0375 1.65039 15.1875 1.42539 15.1875ZM2.10039 9.9375C0.900391 9.9375 -0.0371094 9 -0.0371094 7.7625L0.0378906 3.5625C0.0378906 3.3375 0.187891 3.1875 0.412891 3.1875C0.637891 3.1875 0.787891 3.375 0.787891 3.5625L0.712891 7.7625C0.712891 8.55 1.31289 9.1875 2.10039 9.1875C2.88789 9.1875 3.52539 8.5875 3.52539 7.8L3.56289 3.6C3.56289 3.4125 3.75039 3.225 3.93789 3.225C4.16289 3.225 4.31289 3.4125 4.31289 3.6L4.27539 7.8C4.27539 9 3.33789 9.9375 2.10039 9.9375Z" fill="black"/>
<path id="Vector_6" d="M1.53711 8.7375C1.31211 8.7375 1.16211 8.5875 1.16211 8.3625V3.5625C1.16211 3.3375 1.31211 3.1875 1.53711 3.1875C1.76211 3.1875 1.91211 3.3375 1.91211 3.5625V8.3625C1.91211 8.5875 1.76211 8.7375 1.53711 8.7375ZM2.77461 8.7375C2.54961 8.7375 2.39961 8.55 2.39961 8.3625L2.43711 3.5625C2.43711 3.375 2.62461 3.1875 2.81211 3.1875C3.03711 3.1875 3.18711 3.375 3.18711 3.5625L3.14961 8.3625C3.14961 8.5875 2.96211 8.7375 2.77461 8.7375ZM11.9246 19.275C7.87461 19.275 4.57461 15.975 4.57461 11.925C4.57461 7.875 7.87461 4.575 11.9246 4.575C15.9746 4.575 19.2746 7.875 19.2746 11.925C19.2746 15.975 15.9746 19.275 11.9246 19.275ZM11.9246 5.325C8.28711 5.325 5.32461 8.2875 5.32461 11.925C5.32461 15.5625 8.28711 18.525 11.9246 18.525C15.5621 18.525 18.5246 15.5625 18.5246 11.925C18.5246 8.2875 15.5621 5.325 11.9246 5.325Z" fill="black"/>
<path id="Vector_7" d="M11.9262 17.4002C8.88867 17.4002 6.45117 14.9627 6.45117 11.9252C6.45117 8.88769 8.88867 6.4502 11.9262 6.4502C14.9637 6.4502 17.4012 8.88769 17.4012 11.9252C17.4012 14.9627 14.9637 17.4002 11.9262 17.4002ZM11.9262 7.2002C9.33867 7.2002 7.20117 9.33769 7.20117 11.9252C7.20117 14.5127 9.33867 16.6502 11.9262 16.6502C14.5137 16.6502 16.6512 14.5127 16.6512 11.9252C16.6512 9.33769 14.5137 7.2002 11.9262 7.2002Z" fill="black"/>
<path id="Vector_8" d="M8.4375 12.3004C8.2125 12.3004 8.0625 12.1504 8.0625 11.9254C8.0625 9.78789 9.825 8.02539 11.9625 8.02539C12.1875 8.02539 12.3375 8.17539 12.3375 8.40039C12.3375 8.62539 12.1875 8.77539 11.9625 8.77539C10.2375 8.77539 8.8125 10.2004 8.8125 11.9254C8.8125 12.1504 8.6625 12.3004 8.4375 12.3004Z" fill="black"/>
</g>
</g>
<defs>
<clipPath id="clip0_374_5155">
<rect width="24" height="24" fill="white"/>
</clipPath>
</defs>
</svg>
