<svg width="24" height="24" viewBox="0 0 24 24" fill="none" xmlns="http://www.w3.org/2000/svg">
<g id="Frame" clip-path="url(#clip0_374_5171)">
<g id="Group">
<path id="Vector" d="M22.4049 12.3109C22.3573 12.2142 22.3325 12.1079 22.3325 12.0001C22.3325 11.8923 22.3573 11.7859 22.4049 11.6892L23.3 9.85808C23.7984 8.8385 23.4035 7.62328 22.4011 7.09139L20.6006 6.13608C20.5052 6.08586 20.4227 6.01439 20.3593 5.92719C20.2959 5.83999 20.2535 5.73939 20.2352 5.63316L19.883 3.62557C19.687 2.50779 18.653 1.75667 17.5296 1.91562L15.5115 2.20109C15.4048 2.21651 15.296 2.20721 15.1935 2.17389C15.0909 2.14058 14.9975 2.08414 14.9202 2.00895L13.4553 0.591834C12.6397 -0.197255 11.3619 -0.197302 10.5463 0.591834L9.08132 2.00909C9.00408 2.08427 8.91059 2.14069 8.80808 2.174C8.70557 2.20732 8.59678 2.21663 8.49009 2.20123L6.472 1.91576C5.34818 1.75672 4.31459 2.50793 4.11851 3.62571L3.76639 5.63321C3.74809 5.73944 3.70562 5.84004 3.64227 5.92725C3.57891 6.01445 3.49637 6.08594 3.401 6.13618L1.60054 7.09148C0.598078 7.62332 0.203205 8.83865 0.701577 9.85822L1.59665 11.6893C1.64429 11.786 1.66907 11.8924 1.66907 12.0002C1.66907 12.108 1.64429 12.2143 1.59665 12.311L0.70153 14.1421C0.203158 15.1617 0.598031 16.3769 1.60049 16.9088L3.40095 17.8641C3.49633 17.9144 3.57889 17.9858 3.64225 18.073C3.70561 18.1602 3.74808 18.2608 3.76639 18.3671L4.11851 20.3747C4.29701 21.3922 5.16954 22.1058 6.17233 22.1057C6.27109 22.1057 6.37131 22.0988 6.47204 22.0846L8.49014 21.7991C8.59682 21.7836 8.70563 21.7929 8.80814 21.8263C8.91066 21.8596 9.00414 21.916 9.08137 21.9912L10.5463 23.4083C10.9542 23.8029 11.4774 24.0002 12.0008 24.0001C12.524 24.0001 13.0476 23.8028 13.4553 23.4083L14.9202 21.9912C15.0783 21.8384 15.2937 21.7685 15.5115 21.7991L17.5296 22.0846C18.6535 22.2436 19.687 21.4924 19.883 20.3746L20.2352 18.3671C20.2535 18.2609 20.296 18.1603 20.3593 18.0731C20.4227 17.9859 20.5052 17.9144 20.6006 17.8641L22.4011 16.9088C23.4035 16.377 23.7984 15.1617 23.3 14.1421L22.4049 12.3109ZM21.7523 15.686L19.9518 16.6413C19.3778 16.946 18.9841 17.4877 18.8718 18.1279L18.5197 20.1354C18.4886 20.3166 18.388 20.4786 18.2392 20.5867C18.0905 20.6947 17.9054 20.7404 17.7234 20.7139L15.7053 20.4285C15.0617 20.3373 14.4249 20.5444 13.9578 20.9963L12.4929 22.4133C12.3612 22.5417 12.1846 22.6135 12.0008 22.6135C11.8169 22.6135 11.6403 22.5417 11.5086 22.4133L10.0438 20.9962C9.64898 20.6143 9.13289 20.4074 8.59411 20.4074C8.49539 20.4074 8.39588 20.4143 8.29622 20.4284L6.27812 20.7139C6.09617 20.7403 5.91109 20.6946 5.76235 20.5865C5.6136 20.4785 5.51296 20.3166 5.48186 20.1354L5.12969 18.1278C5.01738 17.4876 4.62373 16.9458 4.04965 16.6413L2.24919 15.686C2.08642 15.6004 1.96351 15.4547 1.90668 15.2798C1.84986 15.105 1.86361 14.9148 1.94502 14.7499L2.84014 12.9188C3.12552 12.3349 3.12552 11.6652 2.84014 11.0814L1.94502 9.25021C1.86361 9.08534 1.84986 8.89518 1.90668 8.72031C1.96351 8.54543 2.08642 8.39969 2.24919 8.31416L4.04965 7.35886C4.62368 7.05422 5.01738 6.51244 5.12964 5.87232L5.48177 3.86477C5.51282 3.68353 5.61345 3.52161 5.76221 3.41353C5.91097 3.30545 6.09607 3.25977 6.27803 3.28624L8.29613 3.57171C8.93948 3.66279 9.57656 3.45574 10.0437 3.00391L11.5086 1.5868C11.6403 1.45845 11.8168 1.38662 12.0007 1.38662C12.1846 1.38662 12.3612 1.45845 12.4928 1.5868L13.9577 3.00391C14.4248 3.45579 15.0618 3.66279 15.7052 3.57171L17.7233 3.28624C17.9053 3.25979 18.0904 3.30548 18.2391 3.41356C18.3879 3.52163 18.4885 3.68355 18.5196 3.86477L18.8717 5.87237C18.984 6.51249 19.3777 7.05431 19.9518 7.35886L21.7522 8.31416C21.915 8.39969 22.0379 8.54543 22.0947 8.72031C22.1516 8.89518 22.1378 9.08534 22.0564 9.25021L21.1613 11.0813C20.8759 11.6651 20.8759 12.3349 21.1613 12.9187L22.0564 14.7498C22.1378 14.9147 22.1516 15.1049 22.0948 15.2798C22.038 15.4547 21.9151 15.6005 21.7523 15.686Z" fill="#1E1E1E"/>
<path id="Vector_2" d="M17.0586 6.94286C16.7883 6.67258 16.3501 6.67258 16.0798 6.94286L6.9444 16.0783C6.67412 16.3486 6.67412 16.7868 6.9444 17.0571C7.0086 17.1214 7.08488 17.1725 7.16886 17.2073C7.25284 17.2421 7.34287 17.2599 7.43378 17.2598C7.61087 17.2598 7.78806 17.1923 7.92315 17.0571L17.0585 7.9217C17.3289 7.65138 17.3289 7.21319 17.0586 6.94286ZM9.23306 5.771C7.83376 5.771 6.69531 6.90944 6.69531 8.30875C6.69531 9.70805 7.83376 10.8465 9.23306 10.8465C10.6324 10.8465 11.7708 9.70805 11.7708 8.30875C11.7708 6.90944 10.6324 5.771 9.23306 5.771ZM9.23306 9.46224C8.59702 9.46224 8.07957 8.94479 8.07957 8.3087C8.07957 7.67266 8.59702 7.15521 9.23306 7.15521C9.86911 7.15521 10.3866 7.67266 10.3866 8.3087C10.3866 8.94479 9.86911 9.46224 9.23306 9.46224ZM14.7699 13.1535C13.3706 13.1535 12.2322 14.2919 12.2322 15.6912C12.2322 17.0905 13.3706 18.229 14.7699 18.229C16.1692 18.229 17.3077 17.0905 17.3077 15.6912C17.3077 14.2919 16.1692 13.1535 14.7699 13.1535ZM14.7699 16.8447C14.1339 16.8447 13.6164 16.3273 13.6164 15.6912C13.6164 15.0552 14.1338 14.5377 14.7699 14.5377C15.4059 14.5377 15.9234 15.0552 15.9234 15.6912C15.9234 16.3273 15.4059 16.8447 14.7699 16.8447Z" fill="#1E1E1E"/>
</g>
</g>
<defs>
<clipPath id="clip0_374_5171">
<rect width="24" height="24" fill="white"/>
</clipPath>
</defs>
</svg>
