<svg width="24" height="24" viewBox="0 0 24 24" fill="none" xmlns="http://www.w3.org/2000/svg">
<g id="Frame">
<g id="Group">
<path id="Vector" d="M18.2916 12.1257L17.7003 5.69367C17.6875 5.55398 17.6229 5.42413 17.5193 5.32959C17.4157 5.23505 17.2805 5.18264 17.1402 5.18264H13.7054V3.87581C13.7054 1.84205 12.0508 0.1875 10.0171 0.1875C7.98335 0.1875 6.32875 1.84205 6.32875 3.87581V5.18259H2.89385C2.75357 5.18259 2.61835 5.235 2.51472 5.32954C2.41109 5.42408 2.34652 5.55394 2.33369 5.69362L1.11166 18.9892C1.06441 19.5037 1.22346 19.9773 1.5716 20.3589C1.91983 20.7406 2.37691 20.9423 2.89352 20.9423H11.9091C12.9456 22.6608 14.8305 23.8125 16.9795 23.8125C20.242 23.8125 22.8963 21.1582 22.8963 17.8957C22.8963 15.084 20.9248 12.7242 18.2916 12.1257ZM7.45375 3.87581C7.45375 2.46239 8.60364 1.3125 10.0171 1.3125C11.4305 1.3125 12.5804 2.46239 12.5804 3.87581V5.18259H7.45375V3.87581ZM2.89352 19.8173C2.6935 19.8173 2.53755 19.7485 2.40274 19.6007C2.26792 19.4529 2.21369 19.2913 2.23197 19.0921L3.40703 6.30764H6.32875V7.33322C6.32875 7.64386 6.58061 7.89572 6.89125 7.89572C7.20189 7.89572 7.45375 7.64386 7.45375 7.33322V6.30764H12.5804V7.33322C12.5804 7.64386 12.8323 7.89572 13.1429 7.89572C13.4536 7.89572 13.7054 7.64386 13.7054 7.33322V6.30764H16.6271L17.1486 11.9814C17.0923 11.9798 17.0359 11.9789 16.9795 11.9789C13.717 11.9789 11.0627 14.6332 11.0627 17.8957C11.0627 18.5681 11.1756 19.2145 11.3832 19.8173H2.89352ZM16.9795 22.6875C14.3372 22.6875 12.1876 20.5379 12.1876 17.8957C12.1876 15.2534 14.3372 13.1038 16.9795 13.1038C19.6217 13.1038 21.7713 15.2534 21.7713 17.8957C21.7713 20.5379 19.6217 22.6875 16.9795 22.6875ZM19.6229 16.1316C19.8377 16.356 19.83 16.7121 19.6056 16.9269L16.7333 19.677C16.6286 19.7774 16.4892 19.8333 16.3443 19.8332C16.2033 19.8333 16.0675 19.7804 15.9638 19.685L14.3619 18.2138C14.1331 18.0037 14.1179 17.6479 14.3281 17.4191C14.5382 17.1902 14.894 17.1751 15.1228 17.3852L16.3363 18.4996L18.8276 16.1143C19.0519 15.8995 19.408 15.9072 19.6229 16.1316Z" fill="black"/>
</g>
</g>
</svg>
