<svg width="20" height="20" viewBox="0 0 20 20" fill="none" xmlns="http://www.w3.org/2000/svg">
<path d="M14.166 1.04102H2.49935C2.11312 1.04277 1.7432 1.19698 1.47009 1.47009C1.19698 1.7432 1.04277 2.11312 1.04102 2.49935V17.4993C1.04277 17.8856 1.19698 18.2555 1.47009 18.5286C1.7432 18.8017 2.11312 18.9559 2.49935 18.9577H14.9993C15.091 18.9577 15.1827 18.9577 15.2743 18.9494C15.2842 18.9394 15.2954 18.931 15.3077 18.9243C15.4599 18.5076 15.5607 18.0739 15.6077 17.6327C15.4088 17.6827 15.2044 17.7079 14.9993 17.7077C14.2811 17.7077 13.5922 17.4223 13.0843 16.9144C12.5764 16.4065 12.291 15.7176 12.291 14.9993C12.291 14.2811 12.5764 13.5922 13.0843 13.0843C13.5922 12.5764 14.2811 12.291 14.9993 12.291C15.21 12.2903 15.4199 12.3155 15.6243 12.366V2.49935C15.6226 2.11312 15.4684 1.7432 15.1953 1.47009C14.9222 1.19698 14.5522 1.04277 14.166 1.04102ZM4.58268 4.37435H12.0827C12.2484 4.37435 12.4074 4.4402 12.5246 4.55741C12.6418 4.67462 12.7077 4.83359 12.7077 4.99935C12.7077 5.16511 12.6418 5.32408 12.5246 5.44129C12.4074 5.5585 12.2484 5.62435 12.0827 5.62435H4.58268C4.41692 5.62435 4.25795 5.5585 4.14074 5.44129C4.02353 5.32408 3.95768 5.16511 3.95768 4.99935C3.95768 4.83359 4.02353 4.67462 4.14074 4.55741C4.25795 4.4402 4.41692 4.37435 4.58268 4.37435ZM4.58268 7.70768H12.0827C12.2484 7.70768 12.4074 7.77353 12.5246 7.89074C12.6418 8.00795 12.7077 8.16692 12.7077 8.33268C12.7077 8.49844 12.6418 8.65741 12.5246 8.77462C12.4074 8.89183 12.2484 8.95768 12.0827 8.95768H4.58268C4.41692 8.95768 4.25795 8.89183 4.14074 8.77462C4.02353 8.65741 3.95768 8.49844 3.95768 8.33268C3.95768 8.16692 4.02353 8.00795 4.14074 7.89074C4.25795 7.77353 4.41692 7.70768 4.58268 7.70768ZM9.16602 15.6243H4.58268C4.41692 15.6243 4.25795 15.5585 4.14074 15.4413C4.02353 15.3241 3.95768 15.1651 3.95768 14.9993C3.95768 14.8336 4.02353 14.6746 4.14074 14.5574C4.25795 14.4402 4.41692 14.3743 4.58268 14.3743H9.16602C9.33178 14.3743 9.49075 14.4402 9.60796 14.5574C9.72517 14.6746 9.79102 14.8336 9.79102 14.9993C9.79102 15.1651 9.72517 15.3241 9.60796 15.4413C9.49075 15.5585 9.33178 15.6243 9.16602 15.6243ZM9.99935 12.291H4.58268C4.41692 12.291 4.25795 12.2252 4.14074 12.108C4.02353 11.9907 3.95768 11.8318 3.95768 11.666C3.95768 11.5003 4.02353 11.3413 4.14074 11.2241C4.25795 11.1069 4.41692 11.041 4.58268 11.041H9.99935C10.1651 11.041 10.3241 11.1069 10.4413 11.2241C10.5585 11.3413 10.6243 11.5003 10.6243 11.666C10.6243 11.8318 10.5585 11.9907 10.4413 12.108C10.3241 12.2252 10.1651 12.291 9.99935 12.291Z" fill="#1E1E1E"/>
<path d="M15.6235 11.0908C15.1091 11.0153 14.585 11.0418 14.0809 11.1689C13.5768 11.296 13.1027 11.5211 12.6856 11.8314C12.2685 12.1417 11.9166 12.5311 11.65 12.9774C11.3834 13.4237 11.2073 13.9181 11.1318 14.4325C11.0563 14.9468 11.0829 15.471 11.2099 15.9751C11.337 16.4792 11.5621 16.9533 11.8724 17.3704C12.1827 17.7875 12.5721 18.1394 13.0184 18.406C13.4647 18.6726 13.9591 18.8486 14.4735 18.9241C14.6475 18.9477 14.8229 18.9588 14.9985 18.9575C15.0902 18.9575 15.1818 18.9575 15.2735 18.9491C16.2437 18.8825 17.1554 18.4611 17.8348 17.7652C18.5141 17.0694 18.9135 16.1478 18.9568 15.1762C19 14.2047 18.6842 13.2512 18.0694 12.4977C17.4546 11.7442 16.5839 11.2434 15.6235 11.0908ZM15.6068 17.6325C15.4079 17.6825 15.2036 17.7077 14.9985 17.7075C14.2802 17.7075 13.5913 17.4221 13.0834 16.9142C12.5755 16.4063 12.2902 15.7174 12.2902 14.9991C12.2902 14.2808 12.5755 13.592 13.0834 13.0841C13.5913 12.5762 14.2802 12.2908 14.9985 12.2908C15.2091 12.2901 15.419 12.3153 15.6235 12.3658C16.218 12.5058 16.7475 12.8429 17.1259 13.3223C17.5043 13.8016 17.7093 14.395 17.7073 15.0058C17.7054 15.6165 17.4967 16.2086 17.1153 16.6855C16.7339 17.1625 16.2022 17.4963 15.6068 17.6325Z" fill="#1E1E1E"/>
<path d="M14.5833 16.4577C14.5012 16.4577 14.42 16.4415 14.3442 16.4101C14.2684 16.3786 14.1996 16.3325 14.1416 16.2744L13.3083 15.4411C13.2469 15.3838 13.1976 15.3148 13.1635 15.2382C13.1293 15.1615 13.111 15.0787 13.1095 14.9948C13.108 14.9109 13.1234 14.8275 13.1549 14.7497C13.1863 14.6719 13.2331 14.6012 13.2924 14.5419C13.3518 14.4825 13.4225 14.4357 13.5003 14.4043C13.5781 14.3728 13.6615 14.3574 13.7454 14.3589C13.8293 14.3604 13.9121 14.3787 13.9887 14.4129C14.0654 14.4471 14.1344 14.4963 14.1916 14.5577L14.5833 14.9494L15.8083 13.7244C15.9268 13.614 16.0835 13.5539 16.2454 13.5567C16.4073 13.5596 16.5618 13.6252 16.6763 13.7397C16.7908 13.8542 16.8564 14.0087 16.8593 14.1706C16.8621 14.3325 16.802 14.4892 16.6916 14.6077L15.025 16.2744C14.967 16.3325 14.8982 16.3786 14.8224 16.4101C14.7466 16.4415 14.6654 16.4577 14.5833 16.4577Z" fill="#1E1E1E"/>
</svg>
