<svg width="20" height="20" viewBox="0 0 20 20" fill="none" xmlns="http://www.w3.org/2000/svg">
<g id="Frame" clip-path="url(#clip0_2067_2804)">
<g id="Group">
<path id="Vector" d="M11.875 0H2.29167C1.025 0 0 1.025 0 2.29167V15.2083C0 16.475 1.025 17.5 2.29167 17.5H9.08333C8.38333 16.3917 7.91667 15.0833 7.91667 13.5833V11.55C7.79167 11.625 7.65 11.6667 7.5 11.6667H3.33333C2.875 11.6667 2.5 11.2917 2.5 10.8333C2.5 10.375 2.875 10 3.33333 10H7.5C7.65833 10 7.8 10.0417 7.925 10.1167C7.95833 9.40833 8.29167 8.75833 8.81667 8.33333H3.33333C2.875 8.33333 2.5 7.95833 2.5 7.5C2.5 7.04167 2.875 6.66667 3.33333 6.66667H10.8333C11.1833 6.66667 11.4833 6.88333 11.6083 7.19167L13.9833 6.38333C14.0417 6.35833 14.1 6.34167 14.1667 6.33333V2.29167C14.1667 1.025 13.1417 0 11.875 0ZM6.66667 5H3.33333C2.875 5 2.5 4.625 2.5 4.16667C2.5 3.70833 2.875 3.33333 3.33333 3.33333H6.66667C7.125 3.33333 7.5 3.70833 7.5 4.16667C7.5 4.625 7.125 5 6.66667 5Z" fill="#1E1E1E"/>
<path id="Vector_2" d="M19.4345 9.44873L15.0595 7.9604C14.8853 7.90122 14.6963 7.90122 14.522 7.9604L10.147 9.44873C9.9823 9.50489 9.83926 9.61117 9.73794 9.75269C9.63663 9.8942 9.58211 10.0639 9.58203 10.2379V13.5862C9.58203 17.8087 14.2645 19.8487 14.4637 19.9337C14.5673 19.9771 14.6785 19.9993 14.7909 19.9992C14.9032 19.999 15.0144 19.9765 15.1179 19.9329C15.317 19.8479 19.9995 17.8087 19.9995 13.5862V10.2379C19.9997 10.0638 19.9453 9.89402 19.8439 9.75246C19.7426 9.6109 19.5994 9.50468 19.4345 9.44873ZM17.7495 12.5829L15.2495 15.9162C15.1721 16.0199 15.0715 16.1041 14.9557 16.1619C14.84 16.2198 14.7123 16.2498 14.5829 16.2496C14.4734 16.2498 14.365 16.2283 14.2639 16.1864C14.1627 16.1445 14.0709 16.083 13.9937 16.0054L12.327 14.3387C12.2497 14.2614 12.1883 14.1695 12.1464 14.0684C12.1045 13.9673 12.083 13.859 12.083 13.7496C12.083 13.6401 12.1045 13.5318 12.1464 13.4307C12.1883 13.3296 12.2497 13.2378 12.327 13.1604C12.4044 13.083 12.4963 13.0217 12.5973 12.9798C12.6984 12.9379 12.8068 12.9164 12.9162 12.9164C13.0256 12.9164 13.134 12.9379 13.2351 12.9798C13.3361 13.0217 13.428 13.083 13.5054 13.1604L14.4929 14.1479L16.4162 11.5829C16.5488 11.4061 16.7462 11.2892 16.965 11.2579C17.0733 11.2425 17.1837 11.2485 17.2897 11.2756C17.3957 11.3028 17.4953 11.3506 17.5829 11.4162C17.6704 11.4819 17.7442 11.5642 17.7999 11.6583C17.8557 11.7525 17.8923 11.8567 17.9078 11.965C17.9233 12.0734 17.9173 12.1837 17.8901 12.2897C17.863 12.3957 17.8152 12.4954 17.7495 12.5829Z" fill="#1E1E1E"/>
</g>
</g>
<defs>
<clipPath id="clip0_2067_2804">
<rect width="20" height="20" fill="white"/>
</clipPath>
</defs>
</svg>
