<svg width="24" height="24" viewBox="0 0 24 24" fill="none" xmlns="http://www.w3.org/2000/svg">
<g id="Frame" clip-path="url(#clip0_2067_2787)">
<g id="Group">
<path id="Vector" d="M9.86022 11.5609C11.4484 11.5609 12.8237 10.9912 13.9475 9.86729C15.0712 8.74361 15.6408 7.36867 15.6408 5.78027C15.6408 4.19234 15.0712 2.81727 13.9473 1.69317C12.8234 0.569623 11.4482 0 9.86022 0C8.27177 0 6.89679 0.569623 5.77311 1.69335C4.64942 2.81708 4.07957 4.1922 4.07957 5.78027C4.07957 7.36867 4.64938 8.74379 5.77329 9.86752C6.89721 10.9911 8.27233 11.5609 9.86022 11.5609ZM19.9747 18.4548C19.9423 17.9871 19.8768 17.4769 19.7802 16.9383C19.6828 16.3955 19.5574 15.8825 19.4073 15.4136C19.2522 14.9289 19.0413 14.4503 18.7805 13.9916C18.5099 13.5155 18.192 13.1009 17.8353 12.7598C17.4623 12.403 17.0057 12.1161 16.4776 11.9067C15.9514 11.6986 15.3681 11.5931 14.7443 11.5931C14.4993 11.5931 14.2624 11.6936 13.8048 11.9916C13.4796 12.2034 13.1533 12.4137 12.8261 12.6225C12.5117 12.8228 12.0858 13.0105 11.5598 13.1804C11.0465 13.3465 10.5254 13.4308 10.0111 13.4308C9.49675 13.4308 8.97578 13.3465 8.46199 13.1804C7.93652 13.0107 7.51062 12.823 7.19655 12.6227C6.83234 12.39 6.50281 12.1776 6.21696 11.9913C5.75993 11.6934 5.5228 11.5929 5.27783 11.5929C4.65378 11.5929 4.0708 11.6985 3.54472 11.907C3.01701 12.1159 2.56017 12.4028 2.18681 12.76C1.83033 13.1013 1.51228 13.5157 1.242 13.9916C0.981469 14.4502 0.770533 14.9287 0.615236 15.4138C0.465237 15.8827 0.339847 16.3955 0.242441 16.9383C0.145926 17.4762 0.0803947 17.9866 0.0479573 18.4553C0.0156897 18.927 -0.000304131 19.3997 4.37876e-06 19.8725C4.37876e-06 21.1254 0.398253 22.1395 1.18359 22.8875C1.95923 23.6257 2.98551 24.0001 4.23355 24.0001H15.7897C17.0377 24.0001 18.0636 23.6258 18.8395 22.8876C19.625 22.1401 20.0232 21.1257 20.0232 19.8723C20.0231 19.3888 20.0068 18.9118 19.9747 18.4548Z" fill="#1E1E1E"/>
</g>
</g>
<defs>
<clipPath id="clip0_2067_2787">
<rect width="24" height="24" fill="white"/>
</clipPath>
</defs>
</svg>
